<?xml version="1.0" standalone="no"?>
<!DOCTYPE svg PUBLIC "-//W3C//DTD SVG 20010904//EN"
 "http://www.w3.org/TR/2001/REC-SVG-20010904/DTD/svg10.dtd">
<svg version="1.0" xmlns="http://www.w3.org/2000/svg"
 width="5000.000000pt" height="5000.000000pt" viewBox="0 0 5000.000000 5000.000000"
 preserveAspectRatio="xMidYMid meet">
<metadata>
Created by potrace 1.14, written by Peter Selinger 2001-2017
</metadata>
<g transform="translate(0.000000,5000.000000) scale(0.100000,-0.100000)"
fill="#000000" stroke="none">
<path d="M0 25000 l0 -25000 25000 0 25000 0 0 25000 0 25000 -25000 0 -25000
0 0 -25000z m29795 7810 c121 -6 276 -17 345 -25 69 -7 159 -17 200 -20 105
-8 231 -28 490 -75 187 -35 299 -60 415 -94 44 -13 98 -27 120 -31 119 -21
532 -162 815 -279 63 -26 138 -57 165 -68 64 -26 437 -214 490 -247 22 -13 67
-40 100 -59 176 -101 216 -125 327 -201 227 -153 239 -162 462 -344 346 -282
669 -610 902 -916 364 -478 626 -949 827 -1486 91 -245 136 -387 186 -592 66
-269 139 -733 161 -1013 26 -331 21 -899 -10 -1170 -6 -47 -17 -146 -25 -220
-39 -335 -133 -756 -250 -1120 -127 -389 -265 -712 -442 -1030 -146 -261 -435
-695 -574 -860 -21 -25 -83 -99 -137 -165 -118 -142 -436 -473 -612 -635 -136
-126 -270 -240 -395 -338 -44 -34 -93 -72 -110 -85 -123 -96 -264 -193 -460
-317 -149 -94 -164 -103 -240 -150 -38 -24 -75 -48 -81 -54 -16 -15 -42 -35
-89 -71 -73 -54 -106 -89 -143 -155 -49 -87 -51 -158 -7 -240 50 -92 123 -152
270 -224 145 -71 188 -85 355 -118 98 -19 148 -22 340 -23 124 0 263 4 309 9
169 17 483 96 636 159 121 50 140 58 160 67 74 35 310 130 360 145 64 19 112
56 270 206 l80 77 150 -177 c358 -421 1045 -1251 1045 -1261 0 -13 -77 -104
-204 -240 -213 -229 -571 -522 -847 -691 -195 -119 -260 -155 -352 -196 -45
-19 -100 -43 -122 -53 -220 -98 -361 -144 -630 -210 -110 -27 -264 -58 -342
-70 -78 -11 -148 -22 -155 -25 -34 -12 -436 -35 -613 -35 -456 0 -971 69
-1353 181 -59 17 -132 37 -162 44 -102 25 -414 142 -570 215 -430 199 -738
387 -1205 735 -267 199 -564 453 -924 789 -168 157 -313 276 -426 351 -122 81
-322 181 -430 215 -38 13 -108 35 -155 50 -47 16 -121 38 -165 50 -223 59
-853 274 -1000 340 -33 15 -116 51 -185 81 -264 113 -670 334 -920 502 -316
212 -654 492 -931 773 -336 340 -534 588 -793 994 -95 149 -256 434 -310 550
-296 635 -456 1159 -566 1850 -5 30 -13 78 -19 105 -28 145 -45 449 -46 830 0
383 5 482 41 775 21 179 98 589 115 619 5 9 15 43 23 76 48 207 184 619 267
808 261 596 643 1198 1055 1662 564 635 1274 1148 2083 1507 622 275 1282 464
1916 548 572 75 983 94 1520 70z m-9649 -170 c187 -12 276 -24 361 -51 50 -15
92 -19 218 -19 l155 0 0 -115 0 -115 35 -49 c19 -26 35 -52 35 -56 0 -5 6 -16
14 -24 16 -18 79 -174 95 -236 23 -87 41 -172 41 -191 0 -11 4 -24 10 -30 5
-5 12 -53 16 -107 4 -53 10 -97 14 -97 6 0 24 -149 35 -295 2 -33 9 -103 16
-155 14 -117 14 -1002 0 -1240 -5 -91 -15 -367 -21 -615 -5 -247 -15 -556 -21
-685 -5 -129 -14 -426 -19 -660 -5 -234 -13 -560 -19 -725 -6 -165 -16 -451
-22 -635 -5 -184 -14 -463 -19 -620 -5 -157 -14 -429 -20 -605 -17 -551 -77
-1172 -144 -1495 -36 -175 -92 -410 -106 -445 -7 -16 -27 -82 -46 -145 -48
-164 -176 -485 -261 -655 -190 -379 -484 -761 -787 -1023 -315 -272 -633 -465
-1036 -630 -981 -402 -2353 -462 -3492 -152 -503 137 -1024 376 -1358 622 -36
26 -91 66 -123 88 -162 115 -389 329 -482 455 -33 44 -94 118 -135 165 -113
126 -220 257 -220 269 0 6 60 84 133 173 73 90 141 181 151 203 75 165 388
550 700 860 116 116 278 290 360 388 82 97 152 177 155 177 4 0 33 -35 66 -77
130 -169 242 -287 302 -318 65 -34 138 -82 305 -203 189 -135 240 -167 443
-272 329 -171 641 -255 995 -267 387 -13 705 71 970 258 99 69 284 256 342
344 71 110 173 312 201 400 166 526 187 908 194 3555 3 1111 1 1628 -6 1730
-18 227 -31 341 -46 390 -8 25 -23 77 -35 115 -64 211 -187 336 -402 406 -137
45 -162 47 -1008 84 -394 17 -749 40 -895 57 -65 8 -386 14 -905 17 l-805 6 0
1085 0 1085 945 7 c520 3 979 9 1020 12 344 26 808 47 1230 56 580 11 2698 11
2876 0z"/>
<path d="M29035 30279 c-104 -10 -217 -23 -250 -29 -151 -26 -324 -61 -365
-75 -25 -8 -79 -24 -120 -35 -231 -65 -590 -213 -737 -306 -12 -8 -66 -39
-120 -70 -54 -31 -107 -64 -118 -74 -11 -11 -50 -40 -87 -67 -344 -249 -658
-588 -897 -968 -80 -127 -226 -425 -284 -580 -165 -439 -265 -1009 -259 -1470
6 -456 63 -832 180 -1190 21 -66 42 -133 46 -150 10 -43 88 -219 158 -360 75
-148 149 -274 227 -385 33 -47 77 -110 98 -140 101 -150 386 -438 573 -581
317 -242 623 -404 985 -524 195 -64 223 -72 320 -94 609 -135 1242 -125 1860
30 88 23 221 63 295 91 150 56 416 179 528 245 41 24 76 43 79 43 7 0 237 154
288 193 369 283 682 637 917 1037 138 236 264 537 347 830 69 247 106 451 141
795 13 124 13 538 0 665 -39 382 -68 542 -146 802 -101 339 -278 701 -494
1009 -102 147 -201 258 -415 469 -84 83 -324 278 -391 318 -22 13 -91 55 -154
94 -95 58 -447 238 -466 238 -3 0 -33 11 -67 24 -137 52 -460 145 -559 160
-21 3 -59 11 -84 16 -26 6 -72 13 -102 16 -31 3 -59 7 -62 9 -13 8 -428 33
-550 33 -69 0 -210 -9 -315 -19z"/>
</g>
</svg>
