<?xml version="1.0" encoding="UTF-8"?>
<svg width="72px" height="72px" viewBox="0 0 72 72" version="1.1" xmlns="http://www.w3.org/2000/svg" xmlns:xlink="http://www.w3.org/1999/xlink">
    <title>funds</title>
    <defs>
        <rect id="path-1" x="0" y="0" width="64" height="64" rx="12"></rect>
        <filter x="-10.9%" y="-7.8%" width="121.9%" height="121.9%" filterUnits="objectBoundingBox" id="filter-2">
            <feOffset dx="0" dy="2" in="SourceAlpha" result="shadowOffsetOuter1"></feOffset>
            <feGaussianBlur stdDeviation="2" in="shadowOffsetOuter1" result="shadowBlurOuter1"></feGaussianBlur>
            <feComposite in="shadowBlurOuter1" in2="SourceAlpha" operator="out" result="shadowBlurOuter1"></feComposite>
            <feColorMatrix values="0 0 0 0 0.580392157   0 0 0 0 0.580392157   0 0 0 0 0.580392157  0 0 0 1 0" type="matrix" in="shadowBlurOuter1"></feColorMatrix>
        </filter>
    </defs>
    <g id="Website-3.0" stroke="none" stroke-width="1" fill="none" fill-rule="evenodd">
        <g id="Recent-endeavors" transform="translate(-130.000000, -93.000000)">
            <g id="funds" transform="translate(134.000000, 95.000000)">
                <g id="Rectangle">
                    <use fill="black" fill-opacity="1" filter="url(#filter-2)" xlink:href="#path-1"></use>
                    <rect stroke="#065F46" stroke-width="1" stroke-linejoin="square" fill="#059669" fill-rule="evenodd" x="0.5" y="0.5" width="63" height="63" rx="12"></rect>
                </g>
                <g id="Group" transform="translate(16.000000, 16.000000)" fill="#000000" fill-rule="nonzero">
                    <path d="M16,0 C7.163444,0 0,7.163444 0,16 C0,24.836556 7.163444,32 16,32 C24.836556,32 32,24.836556 32,16 C31.9906725,7.16731046 24.8326895,0.0093274772 16,0 L16,0 Z M17.8461538,23.3846154 L17.2307692,23.3846154 L17.2307692,24.6153846 C17.2307692,25.2951197 16.6797351,25.8461538 16,25.8461538 C15.3202649,25.8461538 14.7692308,25.2951197 14.7692308,24.6153846 L14.7692308,23.3846154 L12.3076923,23.3846154 C11.6279572,23.3846154 11.0769231,22.8335812 11.0769231,22.1538462 C11.0769231,21.4741111 11.6279572,20.9230769 12.3076923,20.9230769 L17.8461538,20.9230769 C18.8657565,20.9230769 19.6923077,20.0965257 19.6923077,19.0769231 C19.6923077,18.0573205 18.8657565,17.2307692 17.8461538,17.2307692 L14.1538462,17.2307692 C11.7747734,17.2307692 9.84615385,15.3021497 9.84615385,12.9230769 C9.84615385,10.5440042 11.7747734,8.61538462 14.1538462,8.61538462 L14.7692308,8.61538462 L14.7692308,7.38461538 C14.7692308,6.70488031 15.3202649,6.15384615 16,6.15384615 C16.6797351,6.15384615 17.2307692,6.70488031 17.2307692,7.38461538 L17.2307692,8.61538462 L19.6923077,8.61538462 C20.3720428,8.61538462 20.9230769,9.16641877 20.9230769,9.84615385 C20.9230769,10.5258889 20.3720428,11.0769231 19.6923077,11.0769231 L14.1538462,11.0769231 C13.1342435,11.0769231 12.3076923,11.9034743 12.3076923,12.9230769 C12.3076923,13.9426795 13.1342435,14.7692308 14.1538462,14.7692308 L17.8461538,14.7692308 C20.2252266,14.7692308 22.1538462,16.6978503 22.1538462,19.0769231 C22.1538462,21.4559958 20.2252266,23.3846154 17.8461538,23.3846154 Z" id="Shape"></path>
                </g>
            </g>
        </g>
    </g>
</svg>