<svg width="35" height="24" viewBox="0 0 35 24" fill="none" xmlns="http://www.w3.org/2000/svg">
  <path d="M8.816 4.68C8.288 4.68 7.84 4.496 7.472 4.128C7.104 3.76 6.92 3.312 6.92 2.784C6.92 2.256 7.104 1.808 7.472 1.44C7.84 1.056 8.288 0.863999 8.816 0.863999C9.344 0.863999 9.792 1.056 10.16 1.44C10.544 1.808 10.736 2.256 10.736 2.784C10.736 3.312 10.544 3.76 10.16 4.128C9.792 4.496 9.344 4.68 8.816 4.68ZM2.84 24C2.072 24 1.432 23.8 0.92 23.4C0.408 23 0.152 22.424 0.152 21.672C0.152 20.12 1.464 18.928 4.088 18.096L6.656 6H10.112L7.736 17.136C8.504 16.88 9.12 16.496 9.584 15.984C10.048 15.472 10.44 14.712 10.76 13.704H11.768C11.336 15.128 10.752 16.176 10.016 16.848C9.28 17.504 8.448 17.952 7.52 18.192L7.16 19.92C6.84 21.472 6.288 22.536 5.504 23.112C4.72 23.704 3.832 24 2.84 24ZM2.288 22.128C2.56 22.128 2.824 21.944 3.08 21.576C3.336 21.208 3.536 20.68 3.68 19.992L3.824 19.296C2.256 19.872 1.472 20.552 1.472 21.336C1.472 21.544 1.544 21.728 1.688 21.888C1.832 22.048 2.032 22.128 2.288 22.128ZM13.6456 18.144C12.7336 18.144 11.9736 17.832 11.3656 17.208C10.7576 16.584 10.4536 15.608 10.4536 14.28C10.4536 13.096 10.6856 11.856 11.1496 10.56C11.6296 9.248 12.3336 8.144 13.2616 7.248C14.2056 6.336 15.3256 5.88 16.6216 5.88C17.2776 5.88 17.7656 5.992 18.0856 6.216C18.4056 6.44 18.5656 6.736 18.5656 7.104V7.2L19.7416 1.68L23.2936 1.2L20.5336 14.16C20.4696 14.4 20.4376 14.656 20.4376 14.928C20.4376 15.248 20.5096 15.48 20.6536 15.624C20.8136 15.752 21.0696 15.816 21.4216 15.816C21.8696 15.816 22.2536 15.624 22.5736 15.24C22.9096 14.856 23.1736 14.344 23.3656 13.704H24.3736C23.3976 16.568 21.7896 18 19.5496 18C18.8936 18 18.3576 17.824 17.9416 17.472C17.5416 17.12 17.2936 16.608 17.1976 15.936C16.7816 16.576 16.2776 17.104 15.6856 17.52C15.1096 17.936 14.4296 18.144 13.6456 18.144ZM15.2056 15.816C15.5896 15.816 15.9736 15.64 16.3576 15.288C16.7576 14.936 17.0296 14.448 17.1736 13.824V13.704L18.3496 8.208C18.2056 7.648 17.8776 7.368 17.3656 7.368C16.7256 7.368 16.1496 7.744 15.6376 8.496C15.1256 9.232 14.7256 10.128 14.4376 11.184C14.1496 12.224 14.0056 13.144 14.0056 13.944C14.0056 14.744 14.1176 15.256 14.3416 15.48C14.5816 15.704 14.8696 15.816 15.2056 15.816ZM29.111 16.824C28.295 17.704 27.343 18.144 26.255 18.144C25.343 18.144 24.583 17.832 23.975 17.208C23.367 16.584 23.063 15.608 23.063 14.28C23.063 13.096 23.295 11.856 23.759 10.56C24.239 9.248 24.943 8.144 25.871 7.248C26.815 6.336 27.935 5.88 29.231 5.88C29.887 5.88 30.375 5.992 30.695 6.216C31.015 6.44 31.175 6.736 31.175 7.104V7.152L31.415 6H34.871L31.223 23.136L27.599 24L29.111 16.824ZM27.815 15.816C28.167 15.816 28.519 15.664 28.871 15.36C29.239 15.056 29.511 14.64 29.687 14.112L30.959 8.184C30.831 7.64 30.503 7.368 29.975 7.368C29.335 7.368 28.759 7.744 28.247 8.496C27.735 9.232 27.335 10.128 27.047 11.184C26.759 12.224 26.615 13.144 26.615 13.944C26.615 14.744 26.727 15.256 26.951 15.48C27.191 15.704 27.479 15.816 27.815 15.816Z" fill="#F8F8F8" />
</svg>