<svg xmlns="http://www.w3.org/2000/svg" xmlns:xlink="http://www.w3.org/1999/xlink" viewBox="0 0 37.35 26.01"><defs><style>.cls-1{fill:url(#linear-gradient);}</style><linearGradient id="linear-gradient" y1="13" x2="37.35" y2="13" gradientUnits="userSpaceOnUse"><stop offset="0" stop-color="#d36262"/><stop offset="1" stop-color="#fbb78c"/></linearGradient></defs><g id="Layer_2" data-name="Layer 2"><g id="Layer_1-2" data-name="Layer 1"><path class="cls-1" d="M16,0V18.21a5.21,5.21,0,0,1-1.34,3.89,5.48,5.48,0,0,1-4,1.3H5.33a5.49,5.49,0,0,1-4-1.3A5.21,5.21,0,0,1,0,18.21V13H5.33v5.22A2.42,2.42,0,0,0,6.12,20,2.6,2.6,0,0,0,8,20.79,2.63,2.63,0,0,0,9.89,20a2.46,2.46,0,0,0,.79-1.82V0Z"/><path class="cls-1" d="M30.68,23.4h-4a5.19,5.19,0,0,1-3.76-1.53,4.92,4.92,0,0,1-1.57-3.66v-13a4.92,4.92,0,0,1,1.57-3.66A5.19,5.19,0,0,1,26.68,0H32a5.16,5.16,0,0,1,3.76,1.54,4.91,4.91,0,0,1,1.57,3.65v13c0,3.06-1.77,4.79-5.33,5.19h5.33V26h-4Q31,26,30.68,23.4Zm-4-18.21v13A2.48,2.48,0,0,0,27.46,20a2.73,2.73,0,0,0,3.78,0A2.45,2.45,0,0,0,32,18.21v-13a2.44,2.44,0,0,0-.79-1.82,2.72,2.72,0,0,0-3.77,0A2.47,2.47,0,0,0,26.68,5.19Z"/></g></g></svg>