<?xml version="1.0" encoding="UTF-8"?>
<svg width="250px" height="250px" viewBox="0 0 250 250" version="1.1" xmlns="http://www.w3.org/2000/svg" xmlns:xlink="http://www.w3.org/1999/xlink">
    <title>Merryfield</title>
    <g id="Merryfield" stroke="none" stroke-width="1" fill="none" fill-rule="evenodd">
        <rect fill="#FFBAB0" opacity="0.75" x="0" y="0" width="250" height="250"></rect>
        <g id="Group" transform="translate(25.000000, 110.000000)" fill="#F3553C" fill-rule="nonzero">
            <path d="M23.9985019,28.4404494 L23.9985019,29.9625468 L0,29.9625468 L0,28.4404494 L23.9985019,28.4404494 Z M189.404494,0 C195.331835,0 200,4.19775281 200,11.6749064 C200,19.1191011 195.270412,23.2509363 189.373783,23.2509363 L181.696629,23.2509363 L181.696629,0 L189.404494,0 Z M166.895131,0 L166.895131,19.5123596 L176.876404,19.5123596 L176.876404,23.2509363 L163.210487,23.2509363 L163.210487,0 L166.895131,0 Z M157.344569,0 L157.344569,3.67265918 L147.580524,3.67265918 L147.580524,9.83820225 L156.424719,9.83820225 L156.424719,13.4127341 L147.580524,13.4127341 L147.580524,19.5775281 L157.346067,19.5775281 L157.346067,23.2509363 L143.894382,23.2509363 L143.894382,0 L157.346067,0 L157.344569,0 Z M136.24794,0 L136.24794,23.2509363 L132.501873,23.2509363 L132.501873,0 L136.247191,0 L136.24794,0 Z M126.636704,0 L126.636704,3.70561798 L116.779026,3.70561798 L116.779026,10.2314607 L125.623221,10.2314607 L125.623221,13.8719101 L116.778277,13.8719101 L116.778277,23.2509363 L113.092884,23.2509363 L113.092884,0 L126.635955,0 L126.636704,0 Z M94.728839,0 L99.9498127,9.73932584 L105.201498,0 L109.347566,0 L101.669663,13.4127341 L101.669663,23.2509363 L97.9842697,23.2509363 L97.9842697,13.4127341 L90.3685393,0 L94.728839,0 Z M80.788015,0 C84.9947566,0 87.6052434,3.11610487 87.6052434,7.05093633 C87.6052434,10.3632959 85.7318352,12.8883895 82.6913858,13.6756554 L87.6052434,23.2509363 L83.4292135,23.2509363 L78.8524345,14.0681648 L76.1505618,14.0681648 L76.1505618,23.2516854 L72.4344569,23.2516854 L72.4344569,0 L80.7865169,0 L80.788015,0 Z M59.6284644,0 C63.8367041,0 66.4464419,3.11610487 66.4464419,7.05093633 C66.4464419,10.3632959 64.5737828,12.8883895 61.5325843,13.6756554 L66.4464419,23.2509363 L62.270412,23.2509363 L57.694382,14.0681648 L54.9917603,14.0681648 L54.9917603,23.2516854 L51.2764045,23.2516854 L51.2764045,0 L59.6284644,0 L59.6284644,0 Z M44.7970037,0 L44.7970037,3.67265918 L35.0307116,3.67265918 L35.0307116,9.83820225 L43.8756554,9.83820225 L43.8756554,13.4127341 L35.0307116,13.4127341 L35.0307116,19.5775281 L44.7970037,19.5775281 L44.7970037,23.2509363 L31.3460674,23.2509363 L31.3460674,0 L44.7970037,0 Z M5.02846442,0 L12.0921348,17.741573 L19.0629213,0 L24.0689139,0 L24.0689139,23.2509363 L20.4134831,23.2509363 L20.4134831,6.13258427 L13.6269663,23.2509363 L10.4344569,23.2509363 L3.70786517,6.19775281 L3.70786517,23.2509363 L0.114606742,23.2509363 L0.114606742,0 L5.02846442,0 Z M189.280899,3.60749064 L185.380524,3.60749064 L185.380524,19.6434457 L189.250187,19.6434457 C193.027715,19.6434457 196.159551,17.0531835 196.159551,11.6749064 C196.159551,6.23071161 193.058427,3.60749064 189.280899,3.60749064 Z M80.1123596,3.47565543 L76.1498127,3.47565543 L76.1498127,10.5917603 L80.1123596,10.5917603 C82.3842697,10.5917603 83.859176,9.18202247 83.859176,7.05018727 C83.859176,4.88539326 82.3842697,3.47565543 80.1123596,3.47565543 Z M58.9535581,3.47565543 L54.9910112,3.47565543 L54.9910112,10.5917603 L58.9535581,10.5917603 C61.2254682,10.5917603 62.7003745,9.18202247 62.7003745,7.05018727 C62.7003745,4.88539326 61.2254682,3.47565543 58.9535581,3.47565543 Z" id="Shape"></path>
        </g>
    </g>
</svg>