<?xml version="1.0" encoding="UTF-8"?>
<svg width="72px" height="72px" viewBox="0 0 72 72" version="1.1" xmlns="http://www.w3.org/2000/svg" xmlns:xlink="http://www.w3.org/1999/xlink">
    <title>merryfield</title>
    <defs>
        <rect id="path-1" x="0" y="0" width="64" height="64" rx="12"></rect>
        <filter x="-10.9%" y="-7.8%" width="121.9%" height="121.9%" filterUnits="objectBoundingBox" id="filter-2">
            <feOffset dx="0" dy="2" in="SourceAlpha" result="shadowOffsetOuter1"></feOffset>
            <feGaussianBlur stdDeviation="2" in="shadowOffsetOuter1" result="shadowBlurOuter1"></feGaussianBlur>
            <feComposite in="shadowBlurOuter1" in2="SourceAlpha" operator="out" result="shadowBlurOuter1"></feComposite>
            <feColorMatrix values="0 0 0 0 0.580219656   0 0 0 0 0.580219656   0 0 0 0 0.580219656  0 0 0 0.5 0" type="matrix" in="shadowBlurOuter1"></feColorMatrix>
        </filter>
    </defs>
    <g id="Website-3.0" stroke="none" stroke-width="1" fill="none" fill-rule="evenodd">
        <g id="Recent-endeavors" transform="translate(-55.000000, -93.000000)">
            <g id="merryfield" transform="translate(59.000000, 95.000000)">
                <g id="Rectangle">
                    <use fill="black" fill-opacity="1" filter="url(#filter-2)" xlink:href="#path-1"></use>
                    <rect stroke="#D6D3D1" stroke-width="1" stroke-linejoin="square" fill="#FFFFFF" fill-rule="evenodd" x="0.5" y="0.5" width="63" height="63" rx="12"></rect>
                </g>
                <g id="Group" transform="translate(16.000000, 16.000000)" fill="#F3553C" fill-rule="nonzero">
                    <path d="M31.9063862,30.3327179 L31.9063862,32 L0,32 L0,30.3327179 L31.9063862,30.3327179 Z M6.68542263,0 L16.0766837,19.4338462 L25.3444541,0 L32,0 L32,25.4687179 L27.1400473,25.4687179 L27.1400473,6.71753846 L18.1172663,25.4687179 L13.8727748,25.4687179 L4.92966513,6.78892308 L4.92966513,25.4687179 L0.152371468,25.4687179 L0.152371468,0 L6.68542263,0 Z" id="Shape"></path>
                </g>
            </g>
        </g>
    </g>
</svg>